<svg height="auto" viewBox="0 0 2000 1000" xmlns="http://www.w3.org/2000/svg"><path d="M0 1000h61.538M76.923 1000h61.539M153.846 1000h61.539v-18.906q0-30.77-30.77-30.77-30.769 0-30.769 30.77ZM230.77 1000h61.538v-55.659q0-30.77-30.77-30.77-30.769 0-30.769 30.77ZM307.692 1000h61.539V878.52q0-30.77-30.77-30.77-30.769 0-30.769 30.77ZM384.615 1000h61.539V883.23q0-30.769-30.77-30.769-30.769 0-30.769 30.77ZM461.538 1000h61.539V843.833q0-30.769-30.77-30.769-30.769 0-30.769 30.77ZM538.462 1000H600V884.934q0-30.77-30.77-30.77-30.768 0-30.768 30.77ZM615.385 1000h61.538V723.724q0-30.77-30.77-30.77-30.768 0-30.768 30.77ZM692.308 1000h61.538V686.625q0-30.769-30.77-30.769-30.768 0-30.768 30.77ZM769.23 1000h61.54V801.809q0-30.77-30.77-30.77t-30.77 30.77ZM846.154 1000h61.538V724.836q0-30.769-30.769-30.769-30.77 0-30.77 30.77ZM923.077 1000h61.538V668.812q0-30.77-30.769-30.77-30.77 0-30.77 30.77ZM1000 1000h61.538V547.18q0-30.77-30.769-30.77T1000 547.18ZM1076.923 1000h61.539V471.203q0-30.77-30.77-30.77-30.769 0-30.769 30.77ZM1153.846 1000h61.539V540.109q0-30.77-30.77-30.77-30.769 0-30.769 30.77ZM1230.77 1000h61.538V428.99q0-30.769-30.77-30.769-30.769 0-30.769 30.77ZM1307.692 1000h61.539V662.638q0-30.77-30.77-30.77-30.769 0-30.769 30.77ZM1384.615 1000h61.539V528.044q0-30.77-30.77-30.77-30.769 0-30.769 30.77ZM1461.538 1000h61.539V345.675q0-30.77-30.77-30.77-30.769 0-30.769 30.77ZM1538.462 1000H1600V354.258q0-30.77-30.77-30.77-30.768 0-30.768 30.77ZM1615.385 1000h61.538V319.603q0-30.769-30.77-30.769-30.768 0-30.768 30.77ZM1692.308 1000h61.538V222.951q0-30.77-30.77-30.77-30.768 0-30.768 30.77ZM1769.23 1000h61.54V383.958q0-30.769-30.77-30.769t-30.77 30.77ZM1846.154 1000h61.538V242.23q0-30.769-30.769-30.769-30.77 0-30.77 30.77ZM1923.077 1000h61.538V161.152q0-30.77-30.769-30.77-30.77 0-30.77 30.77Z" fill="#18bb28"/></svg>