<svg height="auto" viewBox="0 0 2000 1000" xmlns="http://www.w3.org/2000/svg"><path d="M0 1000h20.513M25.641 1000h20.513M51.282 1000h20.513v-12.946q0-10.257-10.257-10.257-10.256 0-10.256 10.257ZM76.923 1000h20.513v-24.955q0-10.257-10.257-10.257-10.256 0-10.256 10.257ZM102.564 1000h20.513v-35.992q0-10.256-10.256-10.256-10.257 0-10.257 10.256ZM128.205 1000h20.513v-33.738q0-10.256-10.256-10.256-10.257 0-10.257 10.256ZM153.846 1000h20.513v-41.888q0-10.256-10.256-10.256-10.257 0-10.257 10.256ZM179.487 1000H200v-47.234q0-10.256-10.256-10.256-10.257 0-10.257 10.256ZM205.128 1000h20.513v-57.64q0-10.257-10.256-10.257-10.257 0-10.257 10.256ZM230.77 1000h20.512v-86.787q0-10.257-10.256-10.257-10.257 0-10.257 10.257ZM256.41 1000h20.513V881.398q0-10.257-10.256-10.257-10.257 0-10.257 10.257ZM282.051 1000h20.513v-64.317q0-10.256-10.256-10.256-10.257 0-10.257 10.256ZM307.692 1000h20.513V887.566q0-10.257-10.256-10.257-10.257 0-10.257 10.257ZM333.333 1000h20.513V857.706q0-10.257-10.256-10.257-10.257 0-10.257 10.257ZM358.974 1000h20.513v-92.69q0-10.256-10.256-10.256-10.257 0-10.257 10.256ZM384.615 1000h20.513V830.294q0-10.256-10.256-10.256-10.257 0-10.257 10.256ZM410.256 1000h20.513V887.045q0-10.257-10.256-10.257-10.257 0-10.257 10.257ZM435.897 1000h20.513V820.845q0-10.257-10.256-10.257-10.257 0-10.257 10.257ZM461.538 1000h20.513V839.753q0-10.257-10.256-10.257-10.257 0-10.257 10.257ZM487.18 1000h20.512V796.747q0-10.256-10.256-10.256-10.257 0-10.257 10.256ZM512.82 1000h20.513V776.247q0-10.256-10.256-10.256t-10.256 10.256ZM538.462 1000h20.512V831.255q0-10.256-10.256-10.256t-10.256 10.256ZM564.103 1000h20.512V784.243q0-10.257-10.256-10.257t-10.256 10.257ZM589.744 1000h20.512V724q0-10.256-10.256-10.256T589.744 724ZM615.385 1000h20.512V751.703q0-10.256-10.256-10.256t-10.256 10.256ZM641.026 1000h20.512V728.085q0-10.256-10.256-10.256t-10.256 10.256ZM666.667 1000h20.512V788.968q0-10.256-10.256-10.256t-10.256 10.256ZM692.308 1000h20.513V729.766q0-10.256-10.257-10.256-10.256 0-10.256 10.256ZM717.949 1000h20.513V712.144q0-10.256-10.257-10.256-10.256 0-10.256 10.256ZM743.59 1000h20.513V726.673q0-10.256-10.257-10.256-10.256 0-10.256 10.256ZM769.23 1000h20.514V675.835q0-10.256-10.257-10.256-10.256 0-10.256 10.256ZM794.872 1000h20.513V765.12q0-10.257-10.257-10.257-10.256 0-10.256 10.256ZM820.513 1000h20.513V797.06q0-10.257-10.257-10.257-10.256 0-10.256 10.256ZM846.154 1000h20.513V655.257q0-10.257-10.257-10.257-10.256 0-10.256 10.257ZM871.795 1000h20.513V746.519q0-10.257-10.257-10.257-10.256 0-10.256 10.257ZM897.436 1000h20.513V672.217q0-10.256-10.257-10.256-10.256 0-10.256 10.256ZM923.077 1000h20.513V643.012q0-10.256-10.257-10.256-10.256 0-10.256 10.256ZM948.718 1000h20.513V561.495q0-10.256-10.257-10.256-10.256 0-10.256 10.256ZM974.359 1000h20.513V647.936q0-10.256-10.257-10.256-10.256 0-10.256 10.256ZM1000 1000h20.513V695.954q0-10.256-10.257-10.256-10.256 0-10.256 10.256ZM1025.641 1000h20.513V732.52q0-10.256-10.257-10.256-10.256 0-10.256 10.256ZM1051.282 1000h20.513V536.343q0-10.256-10.257-10.256-10.256 0-10.256 10.256ZM1076.923 1000h20.513V637.267q0-10.256-10.257-10.256-10.256 0-10.256 10.256ZM1102.564 1000h20.513V551.235q0-10.256-10.256-10.256-10.257 0-10.257 10.256ZM1128.205 1000h20.513V495.795q0-10.256-10.256-10.256-10.257 0-10.257 10.256ZM1153.846 1000h20.513V651.507q0-10.256-10.256-10.256-10.257 0-10.257 10.256ZM1179.487 1000H1200V618.755q0-10.257-10.256-10.257-10.257 0-10.257 10.257ZM1205.128 1000h20.513V452.925q0-10.256-10.256-10.256-10.257 0-10.257 10.256ZM1230.77 1000h20.512V555.855q0-10.256-10.256-10.256-10.257 0-10.257 10.256ZM1256.41 1000h20.513V685.986q0-10.257-10.256-10.257-10.257 0-10.257 10.257ZM1282.051 1000h20.513V425.055q0-10.257-10.256-10.257-10.257 0-10.257 10.257ZM1307.692 1000h20.513V427.24q0-10.256-10.256-10.256-10.257 0-10.257 10.257ZM1333.333 1000h20.513V616.196q0-10.256-10.256-10.256-10.257 0-10.257 10.256ZM1358.974 1000h20.513V323.75q0-10.256-10.256-10.256-10.257 0-10.257 10.256ZM1384.615 1000h20.513V311.369q0-10.257-10.256-10.257-10.257 0-10.257 10.257ZM1410.256 1000h20.513V331.611q0-10.256-10.256-10.256-10.257 0-10.257 10.256ZM1435.897 1000h20.513V554.92q0-10.256-10.256-10.256-10.257 0-10.257 10.257ZM1461.538 1000h20.513V451.93q0-10.256-10.256-10.256-10.257 0-10.257 10.256ZM1487.18 1000h20.512V341.81q0-10.256-10.256-10.256-10.257 0-10.257 10.256ZM1512.82 1000h20.513V609.955q0-10.256-10.256-10.256t-10.256 10.256ZM1538.462 1000h20.512V465.804q0-10.257-10.256-10.257t-10.256 10.257ZM1564.103 1000h20.512V474.75q0-10.256-10.256-10.256t-10.256 10.256ZM1589.744 1000h20.512V246.375q0-10.257-10.256-10.257t-10.256 10.257ZM1615.385 1000h20.512V551.343q0-10.257-10.256-10.257t-10.256 10.257ZM1641.026 1000h20.512V305.178q0-10.256-10.256-10.256t-10.256 10.256ZM1666.667 1000h20.512V327.649q0-10.257-10.256-10.257t-10.256 10.257ZM1692.308 1000h20.513V171.549q0-10.256-10.257-10.256-10.256 0-10.256 10.256ZM1717.949 1000h20.513V254.274q0-10.256-10.257-10.256-10.256 0-10.256 10.256ZM1743.59 1000h20.513V432.792q0-10.256-10.257-10.256-10.256 0-10.256 10.256ZM1769.23 1000h20.514V560.55q0-10.256-10.257-10.256-10.256 0-10.256 10.256ZM1794.872 1000h20.513V361.656q0-10.257-10.257-10.257-10.256 0-10.256 10.257ZM1820.513 1000h20.513V271.808q0-10.257-10.257-10.257-10.256 0-10.256 10.257ZM1846.154 1000h20.513V296.317q0-10.256-10.257-10.256-10.256 0-10.256 10.256ZM1871.795 1000h20.513V427.24q0-10.257-10.257-10.257-10.256 0-10.256 10.256ZM1897.436 1000h20.513V475.148q0-10.257-10.257-10.257-10.256 0-10.256 10.257ZM1923.077 1000h20.513V257.444q0-10.256-10.257-10.256-10.256 0-10.256 10.256ZM1948.718 1000h20.513V352.384q0-10.257-10.257-10.257-10.256 0-10.256 10.257ZM1974.359 1000h20.513V266.731q0-10.256-10.257-10.256-10.256 0-10.256 10.256Z" fill="#18bb28"/></svg>