<svg height="auto" viewBox="0 0 2000 1000" xmlns="http://www.w3.org/2000/svg"><path d="M0 1000h61.538V50.581q0-30.77-30.769-30.77T0 50.582ZM76.923 1000h61.539V55.692q0-30.77-30.77-30.77-30.769 0-30.769 30.77ZM153.846 1000h61.539V70.948q0-30.769-30.77-30.769-30.769 0-30.769 30.77ZM230.77 1000h61.538V94.522q0-30.77-30.77-30.77-30.769 0-30.769 30.77ZM307.692 1000h61.539V123.942q0-30.77-30.77-30.77-30.769 0-30.769 30.77ZM384.615 1000h61.539V157.004q0-30.77-30.77-30.77-30.769 0-30.769 30.77ZM461.538 1000h61.539V221.79q0-30.769-30.77-30.769-30.769 0-30.769 30.77ZM538.462 1000H600V277.192q0-30.77-30.77-30.77-30.768 0-30.768 30.77ZM615.385 1000h61.538V196.847q0-30.77-30.77-30.77-30.768 0-30.768 30.77ZM692.308 1000h61.538V227.898q0-30.769-30.77-30.769-30.768 0-30.768 30.77ZM769.23 1000h61.54V316.858q0-30.769-30.77-30.769t-30.77 30.77ZM846.154 1000h61.538V322.124q0-30.77-30.769-30.77-30.77 0-30.77 30.77ZM923.077 1000h61.538V333.085q0-30.77-30.769-30.77-30.77 0-30.77 30.77ZM1000 1000h61.538V371.81q0-30.769-30.769-30.769T1000 371.811ZM1076.923 1000h61.539V453.618q0-30.77-30.77-30.77-30.769 0-30.769 30.77ZM1153.846 1000h61.539V399.257q0-30.77-30.77-30.77-30.769 0-30.769 30.77ZM1230.77 1000h61.538V351.36q0-30.769-30.77-30.769-30.769 0-30.769 30.77ZM1307.692 1000h61.539V567.554q0-30.769-30.77-30.769-30.769 0-30.769 30.77ZM1384.615 1000h61.539V695.131q0-30.769-30.77-30.769-30.769 0-30.769 30.77ZM1461.538 1000h61.539V571.5q0-30.77-30.77-30.77-30.769 0-30.769 30.77ZM1538.462 1000H1600V457.053q0-30.769-30.77-30.769-30.768 0-30.768 30.77ZM1615.385 1000h61.538V741.146q0-30.769-30.77-30.769-30.768 0-30.768 30.77ZM1692.308 1000h61.538V667.056q0-30.77-30.77-30.77-30.768 0-30.768 30.77ZM1769.23 1000h61.54v-62.093q0-30.769-30.77-30.769t-30.77 30.77ZM1846.154 1000h61.538V736.308q0-30.77-30.769-30.77-30.77 0-30.77 30.77ZM1923.077 1000h61.538V840.15q0-30.77-30.769-30.77-30.77 0-30.77 30.77Z" fill="#444cf7"/></svg>