<svg height="auto" viewBox="0 0 2000 1000" xmlns="http://www.w3.org/2000/svg"><path d="M0 1000h61.538V207.557q0-30.769-30.769-30.769T0 207.558ZM76.923 1000h61.539V693.116q0-30.77-30.77-30.77-30.769 0-30.769 30.77ZM153.846 1000h61.539V238.639q0-30.77-30.77-30.77-30.769 0-30.769 30.77ZM230.77 1000h61.538V700.754q0-30.769-30.77-30.769-30.769 0-30.769 30.77ZM307.692 1000h61.539V618.997q0-30.769-30.77-30.769-30.769 0-30.769 30.77ZM384.615 1000h61.539V673.633q0-30.77-30.77-30.77-30.769 0-30.769 30.77ZM461.538 1000h61.539V751.382q0-30.77-30.77-30.77-30.769 0-30.769 30.77ZM538.462 1000H600V707.687q0-30.769-30.77-30.769-30.768 0-30.768 30.77ZM615.385 1000h61.538V322.468q0-30.77-30.77-30.77-30.768 0-30.768 30.77ZM692.308 1000h61.538V603.302q0-30.77-30.77-30.77-30.768 0-30.768 30.77ZM769.23 1000h61.54V657.932q0-30.77-30.77-30.77t-30.77 30.77ZM846.154 1000h61.538V562.997q0-30.77-30.769-30.77-30.77 0-30.77 30.77ZM923.077 1000h61.538V268.895q0-30.77-30.769-30.77-30.77 0-30.77 30.77ZM1000 1000h61.538V243.758q0-30.77-30.769-30.77T1000 243.759ZM1076.923 1000h61.539V682.493q0-30.77-30.77-30.77-30.769 0-30.769 30.77ZM1153.846 1000h61.539V229.879q0-30.77-30.77-30.77-30.769 0-30.769 30.77ZM1230.77 1000h61.538V317.221q0-30.769-30.77-30.769-30.769 0-30.769 30.77ZM1307.692 1000h61.539V336.023q0-30.77-30.77-30.77-30.769 0-30.769 30.77ZM1384.615 1000h61.539V367.391q0-30.77-30.77-30.77-30.769 0-30.769 30.77ZM1461.538 1000h61.539V630.939q0-30.77-30.77-30.77-30.769 0-30.769 30.77ZM1538.462 1000H1600V302.024q0-30.769-30.77-30.769-30.768 0-30.768 30.77ZM1615.385 1000h61.538V592.02q0-30.77-30.77-30.77-30.768 0-30.768 30.77ZM1692.308 1000h61.538V515.305q0-30.769-30.77-30.769-30.768 0-30.768 30.77ZM1769.23 1000h61.54V669.275q0-30.77-30.77-30.77t-30.77 30.77ZM1846.154 1000h61.538V461.052q0-30.77-30.769-30.77-30.77 0-30.77 30.77ZM1923.077 1000h61.538V723.094q0-30.769-30.769-30.769-30.77 0-30.77 30.77Z" fill="#444cf7"/></svg>