<svg height="auto" viewBox="0 0 2000 1000" xmlns="http://www.w3.org/2000/svg"><path d="M0 997.438c3.2-1.099 73.6-25.353 80-27.468 6.4-2.115 73.6-23.382 80-25.4 6.4-2.016 73.6-22.275 80-25.03 6.4-2.755 73.6-41.735 80-43.836 6.4-2.101 73.6-8.023 80-8.685 6.4-.66 73.6-5.871 80-7.847 6.4-1.975 73.6-35.913 80-41.543 6.4-5.63 73.6-99.085 80-99.212 6.4-.128 73.6 99.548 80 96.02 6.4-3.53 73.6-180.204 80-184.242 6.4-4.037 73.6 87.667 80 83.304 6.4-4.363 73.6-191.644 80-192.376 6.4-.732 73.6 175.169 80 174.08 6.4-1.089 73.6-194.796 80-201.296 6.4-6.5 73.6 43.07 80 38.789 6.4-4.282 73.6-138.733 80-145.833 6.4-7.1 73.6-39.812 80-31.654 6.4 8.157 73.6 231.475 80 235.594 6.4 4.12 73.6-122.429 80-132.615 6.4-10.187 73.6-115.34 80-122.05 6.4-6.712 73.6-43.445 80-45.722 6.4-2.277 73.6-8.254 80-11.205 6.4-2.952 73.6-68.964 80-62.577 6.4 6.388 73.6 217.59 80 222.26 6.4 4.672 76.8-101.259 80-105.478V1000H0Z" fill="#444cf71a"/><path d="M0 997.438c3.2-1.099 73.6-25.353 80-27.468 6.4-2.115 73.6-23.382 80-25.4 6.4-2.016 73.6-22.275 80-25.03 6.4-2.755 73.6-41.735 80-43.836 6.4-2.101 73.6-8.023 80-8.685 6.4-.66 73.6-5.871 80-7.847 6.4-1.975 73.6-35.913 80-41.543 6.4-5.63 73.6-99.085 80-99.212 6.4-.128 73.6 99.548 80 96.02 6.4-3.53 73.6-180.204 80-184.242 6.4-4.037 73.6 87.667 80 83.304 6.4-4.363 73.6-191.644 80-192.376 6.4-.732 73.6 175.169 80 174.08 6.4-1.089 73.6-194.796 80-201.296 6.4-6.5 73.6 43.07 80 38.789 6.4-4.282 73.6-138.733 80-145.833 6.4-7.1 73.6-39.812 80-31.654 6.4 8.157 73.6 231.475 80 235.594 6.4 4.12 73.6-122.429 80-132.615 6.4-10.187 73.6-115.34 80-122.05 6.4-6.712 73.6-43.445 80-45.722 6.4-2.277 73.6-8.254 80-11.205 6.4-2.952 73.6-68.964 80-62.577 6.4 6.388 73.6 217.59 80 222.26 6.4 4.672 76.8-101.259 80-105.478" fill="none" stroke="#444cf7" stroke-width="4"/><g fill="#444cf7"><circle cy="997.438" r="8"/><circle cx="80" cy="969.97" r="8"/><circle cx="160" cy="944.571" r="8"/><circle cx="240" cy="919.54" r="8"/><circle cx="320" cy="875.704" r="8"/><circle cx="400" cy="867.019" r="8"/><circle cx="480" cy="859.172" r="8"/><circle cx="560" cy="817.629" r="8"/><circle cx="640" cy="718.417" r="8"/><circle cx="720" cy="814.436" r="8"/><circle cx="800" cy="630.195" r="8"/><circle cx="880" cy="713.499" r="8"/><circle cx="960" cy="521.123" r="8"/><circle cx="1040" cy="695.203" r="8"/><circle cx="1120" cy="493.907" r="8"/><circle cx="1200" cy="532.696" r="8"/><circle cx="1280" cy="386.863" r="8"/><circle cx="1360" cy="355.209" r="8"/><circle cx="1440" cy="590.803" r="8"/><circle cx="1520" cy="458.188" r="8"/><circle cx="1600" cy="336.137" r="8"/><circle cx="1680" cy="290.416" r="8"/><circle cx="1760" cy="279.211" r="8"/><circle cx="1840" cy="216.634" r="8"/><circle cx="1920" cy="438.894" r="8"/><circle cx="2000" cy="333.416" r="8"/></g></svg>