<svg height="auto" viewBox="0 0 2000 1000" xmlns="http://www.w3.org/2000/svg"><path d="M0 1000h61.538V387.203q0-30.769-30.769-30.769T0 387.204ZM76.923 1000h61.539V138.925q0-30.77-30.77-30.77-30.769 0-30.769 30.77ZM153.846 1000h61.539V610.49q0-30.77-30.77-30.77-30.769 0-30.769 30.77ZM230.77 1000h61.538V603.8q0-30.769-30.77-30.769-30.769 0-30.769 30.77ZM307.692 1000h61.539V772.583q0-30.77-30.77-30.77-30.769 0-30.769 30.77ZM384.615 1000h61.539V427.946q0-30.77-30.77-30.77-30.769 0-30.769 30.77ZM461.538 1000h61.539V265.583q0-30.77-30.77-30.77-30.769 0-30.769 30.77ZM538.462 1000H600V601.504q0-30.77-30.77-30.77-30.768 0-30.768 30.77ZM615.385 1000h61.538V492.155q0-30.769-30.77-30.769-30.768 0-30.768 30.77ZM692.308 1000h61.538V686.966q0-30.769-30.77-30.769-30.768 0-30.768 30.77ZM769.23 1000h61.54V273.169q0-30.77-30.77-30.77t-30.77 30.77ZM846.154 1000h61.538V555.797q0-30.769-30.769-30.769-30.77 0-30.77 30.77ZM923.077 1000h61.538V425.366q0-30.77-30.769-30.77-30.77 0-30.77 30.77ZM1000 1000h61.538V589.581q0-30.769-30.769-30.769T1000 589.582ZM1076.923 1000h61.539V703.389q0-30.77-30.77-30.77-30.769 0-30.769 30.77ZM1153.846 1000h61.539V208.502q0-30.769-30.77-30.769-30.769 0-30.769 30.77ZM1230.77 1000h61.538V253.02q0-30.77-30.77-30.77-30.769 0-30.769 30.77ZM1307.692 1000h61.539V322.627q0-30.77-30.77-30.77-30.769 0-30.769 30.77ZM1384.615 1000h61.539V353.711q0-30.769-30.77-30.769-30.769 0-30.769 30.77ZM1461.538 1000h61.539V664.091q0-30.77-30.77-30.77-30.769 0-30.769 30.77ZM1538.462 1000H1600V225.847q0-30.77-30.77-30.77-30.768 0-30.768 30.77ZM1615.385 1000h61.538V540.28q0-30.77-30.77-30.77-30.768 0-30.768 30.77ZM1692.308 1000h61.538V718.608q0-30.77-30.77-30.77-30.768 0-30.768 30.77ZM1769.23 1000h61.54V787.95q0-30.77-30.77-30.77t-30.77 30.77ZM1846.154 1000h61.538V369.405q0-30.77-30.769-30.77-30.77 0-30.77 30.77ZM1923.077 1000h61.538V178.365q0-30.77-30.769-30.77-30.77 0-30.77 30.77Z" fill="#444cf7"/></svg>